# xmcd CD database file
#
# Track frame offsets:
#	150
#	8026
#	29574
#	55019
#	67928
#	82901
#	118661
#	139665
#	158437
#	178040
#
# Disc length: 2658 seconds
#
# Revision: 0
# Processed by: cddbd v1.5.2PL0 Copyright (c) Steve Scherf et al.
# Submitted via: CDex 1.70beta2
#
DISCID=720a600a
DTITLE=加古隆 - PIANO
DYEAR=2006
DGENRE=Jazz
TTITLE0=01)映画「博士の愛した数式」より 愛のテーマ～前奏曲として
TTITLE1=02)レミニッセンス
TTITLE2=03)アクア・ブルー
TTITLE3=04)雨の石畳
TTITLE4=05)青い花
TTITLE5=06)エンプティートランス
TTITLE6=07)睡蓮のアトリエ
TTITLE7=08)アラビアの町
TTITLE8=09)虹が架かる日～NHKスペシャル「日本の群像」テーマ曲
TTITLE9=10)映画「博士の愛した数式」より 愛のテーマ
EXTD=YEAR: 2006
EXTT0=
EXTT1=
EXTT2=
EXTT3=
EXTT4=
EXTT5=
EXTT6=
EXTT7=
EXTT8=
EXTT9=
PLAYORDER=
